{"title":"Black Diamond (megapack #2) - 21 movies","uid":4712935,"size":25886563779,"categoryP":"porn","categoryS":"movies","magnet":"?xt=urn:btih:020bf5dda1e8c2d26f557eb6a43b417cdd48cf0c&amp;dn=Black+Diamond+%28megapack+%232%29+-+21+movies&amp;tr=udp%3A%2F%2Ftracker.openbittorrent.com%3A80&amp;tr=udp%3A%2F%2Fopen.demonii.com%3A1337&amp;tr=udp%3A%2F%2Ftracker.coppersurfer.tk%3A6969&amp;tr=udp%3A%2F%2Fexodus.desync.com%3A6969","seeders":1,"leechers":5,"uploader":"pure_screens","files":44,"time":1234131548,"description":"Black Diamond (megapack)\n\n\n\n\n\n\n\nAbout.Face.POV.6.XViD-PORNOLATiON\n\n\n\nBig Natural Breasts 3\n\n\n\nCock.Tamers.XXX.DVDRip.XviD-HLSXXX\n\n\n\nEmperor\n\n\n\nEuro.Trash.XviD-CUMSTAiNS\n\n\n\nExxxtraordinary.Eurobabes.1.XXX.DVDRip.XviD-TESORO\n\n\n\nFucking.Beautiful.5.XXX.DVDRiP.XviD-DivXfacTory\n\n\n\nHotel Luxxxuria\n\n\n\nHustler_Leg_Affair_5_DVDRip_DivX\n\n\n\nLa Vita Secreta Di Jasmine\n\n\n\nLegal.Skin.18.XXX.DVDRip.XviD-CUMSTAiNS\n\n\n\nLex Steele XXX #1\n\n\n\nNew Flavors 2 2006\n\n\n\nOut.Numbered.4.XViD-PORNOLATiON\n\n\n\nPrivate Movies 17 - A Taste Of Pleasure\n\n\n\nPrivate.Movies.31.Discovering.Priva.XviD-SWE6RUS\n\n\n\nRocco.Animal.Trainer.12\n\n\n\nSalieri.Airlines.DVD.XViD.AC3.XXX.2005\n\n\n\nTop.Guns.4.XXX.DVDRip.XviD-Pr0nStarS\n\nNFO:\t\n\n\nGeneral\nComplete name                    : E:Black Diamond Mega Pack Part 2110% Natural Vol.8110% Natural Vol.8.avi\nFormat                           : AVI\nFormat/Info                      : Audio Video Interleave\nFile size                        : 1.40 GiB\nDuration                         : 2h 19mn\nOverall bit rate                 : 1 441 Kbps\nWriting application              : VirtualDubMod 1.5.10.1 (build 2439/release)\nWriting library                  : VirtualDubMod build 2439/release\n\nVideo\nFormat                           : MPEG-4 Visual\nFormat profile                   : Streaming Video@L1\nFormat settings, BVOP            : Yes\nFormat settings, QPel            : Yes\nFormat settings, GMC             : No warppoints\nFormat settings, Matrix          : Custom\nCodec ID                         : XVID\nCodec ID/Hint                    : XviD\nDuration                         : 2h 19mn\nBit rate                         : 1 334 Kbps\nWidth                            : 544 pixels\nHeight                           : 384 pixels\nDisplay aspect ratio             : 1.288\nFrame rate                       : 29.970 fps\nResolution                       : 24 bits\nColorimetry                      : 4:2:0\nScan type                        : Progressive\nBits/(Pixel*Frame)               : 0.213\nStream size                      : 1.30 GiB (93%)\nWriting library                  : XviD 1.1.0 Beta1 (UTC 2005-01-16)\n\nAudio\nFormat                           : MPEG Audio\nFormat version                   : Version 1\nFormat profile                   : Layer 3\nCodec ID                         : 55\nCodec ID/Hint                    : MP3\nDuration                         : 2h 19mn\nBit rate mode                    : Constant\nBit rate                         : 96.0 Kbps\nChannel(s)                       : 2 channels\nSampling rate                    : 44.1 KHz\nResolution                       : 16 bits\nStream size                      : 95.6 MiB (7%)\nAlignment                        : Split accross interleaves\nInterleave, duration             : 33 ms (1.00 video frame)\nInterleave, preload duration     : 500 ms\n\nGeneral\nComplete name                    : E:Black Diamond Mega Pack Part 2About.Face.POV.6.XViD-PORNOLATiONAbout.Face.POV.6.XViD-PORNOLATiON.CD1.avi\nFormat                           : AVI\nFormat/Info                      : Audio Video Interleave\nFile size                        : 697 MiB\nDuration                         : 1h 22mn\nOverall bit rate                 : 1 176 Kbps\nWriting application              : VirtualDubMod 1.5.10.1 (build 2439/release)\nWriting library                  : VirtualDubMod build 2439/release\n\nVideo\nFormat                           : MPEG-4 Visual\nFormat profile                   : Streaming Video@L1\nFormat settings, BVOP            : Yes\nFormat settings, QPel            : No\nFormat settings, GMC             : No warppoints\nFormat settings, Matrix          : Default\nMuxing mode                      : Packed bitstream\nCodec ID                         : XVID\nCodec ID/Hint                    : XviD\nDuration                         : 1h 22mn\nBit rate                         : 1 040 Kbps\nWidth                            : 576 pixels\nHeight                           : 336 pixels\nDisplay aspect ratio             : 16/9\nFrame rate                       : 29.970 fps\nResolution                       : 24 bits\nColorimetry                      : 4:2:0\nScan type                        : Progressive\nBits/(Pixel*Frame)               : 0.179\nStream size                      : 616 MiB (88%)\nWriting library                  : XviD 1.0.2 (UTC 2004-08-29)\n\nAudio\nFormat                           : MPEG Audio\nFormat version                   : Version 1\nFormat profile                   : Layer 3\nCodec ID                         : 55\nCodec ID/Hint                    : MP3\nDuration                         : 1h 22mn\nBit rate mode                    : Variable\nBit rate                         : 122 Kbps\nMinimum bit rate                 : 128 Kbps\nChannel(s)                       : 2 channels\nSampling rate                    : 48.0 KHz\nResolution                       : 16 bits\nStream size                      : 72.1 MiB (10%)\nAlignment                        : Aligned on interleaves\nInterleave, duration             : 24 ms (0.72 video frame)\nInterleave, preload duration     : 151 ms\nWriting library                  : LAME3.96r\nEncoding settings                : ABR\n\nGeneral\nComplete name                    : E:Black Diamond Mega Pack Part 2About.Face.POV.6.XViD-PORNOLATiONAbout.Face.POV.6.XViD-PORNOLATiON.CD2.avi\nFormat                           : AVI\nFormat/Info                      : Audio Video Interleave\nFile size                        : 695 MiB\nDuration                         : 1h 35mn\nOverall bit rate                 : 1 019 Kbps\nWriting application              : VirtualDubMod 1.5.10.1 (build 2439/release)\nWriting library                  : VirtualDubMod build 2439/release\n\nVideo\nFormat                           : MPEG-4 Visual\nFormat profile                   : Streaming Video@L1\nFormat settings, BVOP            : Yes\nFormat settings, QPel            : No\nFormat settings, GMC             : No warppoints\nFormat settings, Matrix          : Default\nMuxing mode                      : Packed bitstream\nCodec ID                         : XVID\nCodec ID/Hint                    : XviD\nDuration                         : 1h 35mn\nBit rate                         : 883 Kbps\nWidth                            : 576 pixels\nHeight                           : 336 pixels\nDisplay aspect ratio             : 16/9\nFrame rate                       : 29.970 fps\nResolution                       : 24 bits\nColorimetry                      : 4:2:0\nScan type                        : Progressive\nBits/(Pixel*Frame)               : 0.152\nStream size                      : 603 MiB (87%)\nWriting library                  : XviD 1.0.2 (UTC 2004-08-29)\n\nAudio\nFormat                           : MPEG Audio\nFormat version                   : Version 1\nFormat profile                   : Layer 3\nCodec ID                         : 55\nCodec ID/Hint                    : MP3\nDuration                         : 1h 35mn\nBit rate mode                    : Variable\nBit rate                         : 122 Kbps\nChannel(s)                       : 2 channels\nSampling rate                    : 48.0 KHz\nResolution                       : 16 bits\nStream size                      : 82.9 MiB (12%)\nAlignment                        : Aligned on interleaves\nInterleave, duration             : 24 ms (0.72 video frame)\nInterleave, preload duration     : 489 ms\n\nGeneral\nComplete name                    : E:Black Diamond Mega Pack Part 2Big Natural Breasts 3Big Natural Breasts 3 Cd1.mpg\nFormat                           : MPEG-PS\nFile size                        : 549 MiB\nDuration                         : 55mn 0s\nOverall bit rate                 : 1 395 Kbps\nWriting library                  : encoded by TMPGEnc (ver. 2.521.58.169)\n\nVideo\nID                               : 224 (0xE0)\nFormat                           : MPEG Video\nFormat version                   : Version 1\nFormat settings, Matrix          : Default\nDuration                         : 55mn 0s\nBit rate mode                    : Constant\nBit rate                         : 1 074 Kbps\nNominal bit rate                 : 1 150 Kbps\nWidth                            : 352 pixels\nHeight                           : 240 pixels\nDisplay aspect ratio             : 4/3\nFrame rate                       : 29.970 fps\nScan type                        : Progressive\nBits/(Pixel*Frame)               : 0.424\nWriting library                  : TMPGEnc 2.521.58.169\n\nAudio\nID                               : 192 (0xC0)\nFormat                           : MPEG Audio\nFormat version                   : Version 1\nFormat profile                   : Layer 2\nDuration                         : 55mn 0s\nBit rate mode                    : Constant\nBit rate                         : 224 Kbps\nChannel(s)                       : 2 channels\nSampling rate                    : 44.1 KHz\nResolution                       : 16 bits\n\nGeneral\nComplete name                    : E:Black Diamond Mega Pack Part 2Big Natural Breasts 3Big Natural Breasts 3 Cd2.mpg\nFormat                           : MPEG-PS\nFile size                        : 549 MiB\nDuration                         : 55mn 2s\nOverall bit rate                 : 1 395 Kbps\n\nVideo\nID                               : 224 (0xE0)\nFormat                           : MPEG Video\nFormat version                   : Version 1\nFormat settings, Matrix          : Default\nDuration                         : 55mn 2s\nBit rate mode                    : Constant\nBit rate                         : 1 074 Kbps\nNominal bit rate                 : 1 150 Kbps\nWidth                            : 352 pixels\nHeight                           : 240 pixels\nDisplay aspect ratio             : 4/3\nFrame rate                       : 29.970 fps\nScan type                        : Progressive\nBits/(Pixel*Frame)               : 0.424\n\nAudio\nID                               : 192 (0xC0)\nFormat                           : MPEG Audio\nFormat version                   : Version 1\nFormat profile                   : Layer 2\nDuration                         : 55mn 2s\nBit rate mode                    : Constant\nBit rate                         : 224 Kbps\nChannel(s)                       : 2 channels\nSampling rate                    : 44.1 KHz\nResolution                       : 16 bits\nVideo delay                      : -66ms\n\nGeneral\nComplete name                    : E:Black Diamond Mega Pack Part 2Cock.Tamers.XXX.DVDRip.XviD-HLSXXXhlsxxx-ct.nfo\nFile size                        : 9.23 KiB\n\nGeneral\nComplete name                    : E:Black Diamond Mega Pack Part 2Cock.Tamers.XXX.DVDRip.XviD-HLSXXXhlsxxx-cta.avi\nFormat                           : AVI\nFormat/Info                      : Audio Video Interleave\nFile size                        : 696 MiB\nDuration                         : 1h 2mn\nOverall bit rate                 : 1 547 Kbps\nWriting application              : VirtualDubMod 1.5.10.2 (build 2540/release)\nWriting library                  : VirtualDubMod build 2540/release\n\nVideo\nFormat                           : MPEG-4 Visual\nFormat profile                   : Simple@L3\nFormat settings, BVOP            : Yes\nFormat settings, QPel            : No\nFormat settings, GMC             : No warppoints\nFormat settings, Matrix          : Custom\nCodec ID                         : XVID\nCodec ID/Hint                    : XviD\nDuration                         : 1h 2mn\nBit rate                         : 1 404 Kbps\nWidth                            : 512 pixels\nHeight                           : 384 pixels\nDisplay aspect ratio             : 4/3\nFrame rate                       : 29.970 fps\nResolution                       : 24 bits\nColorimetry                      : 4:2:0\nScan type                        : Progressive\nBits/(Pixel*Frame)               : 0.238\nStream size                      : 632 MiB (91%)\nWriting library                  : XviD 1.1.0 Beta2 (UTC 2005-04-04)\n\nAudio\nFormat                           : MPEG Audio\nFormat version                   : Version 1\nFormat profile                   : Layer 3\nCodec ID                         : 55\nCodec ID/Hint                    : MP3\nDuration                         : 1h 2mn\nBit rate mode                    : Variable\nBit rate                         : 129 Kbps\nNominal bit rate                 : 128 Kbps\nChannel(s)                       : 2 channels\nSampling rate                    : 48.0 KHz\nResolution                       : 16 bits\nStream size                      : 58.0 MiB (8%)\nAlignment                        : Aligned on interleaves\nInterleave, duration             : 24 ms (0.72 video frame)\nInterleave, preload duration     : 467 ms\nWriting library                  : LAME3.90.\nEncoding settings                : ABR\n\nGeneral\nComplete name                    : E:Black Diamond Mega Pack Part 2Cock.Tamers.XXX.DVDRip.XviD-HLSXXXhlsxxx-ctb.avi\nFormat                           : AVI\nFormat/Info                      : Audio Video Interleave\nFile size                        : 697 MiB\nDuration                         : 57mn 23s\nOverall bit rate                 : 1 698 Kbps\nWriting application              : VirtualDubMod 1.5.10.2 (build 2540/release)\nWriting library                  : VirtualDubMod build 2540/release\n\nVideo\nFormat                           : MPEG-4 Visual\nFormat profile                   : Simple@L3\nFormat settings, BVOP            : Yes\nFormat settings, QPel            : No\nFormat settings, GMC             : No warppoints\nFormat settings, Matrix          : Custom\nCodec ID                         : XVID\nCodec ID/Hint                    : XviD\nDuration                         : 57mn 23s\nBit rate                         : 1 554 Kbps\nWidth                            : 512 pixels\nHeight                           : 384 pixels\nDisplay aspect ratio             : 4/3\nFrame rate                       : 29.970 fps\nResolution                       : 24 bits\nColorimetry                      : 4:2:0\nScan type                        : Progressive\nBits/(Pixel*Frame)               : 0.264\nStream size                      : 638 MiB (92%)\nWriting library                  : XviD 1.1.0 Beta2 (UTC 2005-04-04)\n\nAudio\nFormat                           : MPEG Audio\nFormat version                   : Version 1\nFormat profile                   : Layer 3\nCodec ID                         : 55\nCodec ID/Hint                    : MP3\nDuration                         : 57mn 23s\nBit rate mode                    : Variable\nBit rate                         : 129 Kbps\nChannel(s)                       : 2 channels\nSampling rate                    : 48.0 KHz\nResolution                       : 16 bits\nStream size                      : 53.3 MiB (8%)\nAlignment                        : Aligned on interleaves\nInterleave, duration             : 24 ms (0.72 video frame)\nInterleave, preload duration     : 513 ms\n\nGeneral\nComplete name                    : E:Black Diamond Mega Pack Part 2Emperor.DVDRip.XXXEmperor.DVDRip.XXX.CD1.avi\nFormat                           : AVI\nFormat/Info                      : Audio Video Interleave\nFile size                        : 699 MiB\nDuration                         : 1h 2mn\nOverall bit rate                 : 1 563 Kbps\nWriting application              : VirtualDubMod 1.5.4.1 (build 2178/release)\nWriting library                  : VirtualDubMod build 2178/release\n\nVideo\nFormat                           : MPEG-4 Visual\nFormat profile                   : Streaming Video@L1\nFormat settings, BVOP            : Yes\nFormat settings, QPel            : No\nFormat settings, GMC             : No warppoints\nFormat settings, Matrix          : Default\nMuxing mode                      : Packed bitstream\nCodec ID                         : XVID\nCodec ID/Hint                    : XviD\nDuration                         : 1h 2mn\nBit rate                         : 1 451 Kbps\nWidth                            : 512 pixels\nHeight                           : 384 pixels\nDisplay aspect ratio             : 4/3\nFrame rate                       : 23.976 fps\nResolution                       : 24 bits\nColorimetry                      : 4:2:0\nScan type                        : Progressive\nBits/(Pixel*Frame)               : 0.308\nStream size                      : 649 MiB (93%)\nWriting library                  : XviD 1.2.0SMP (UTC 2006-01-08)\n\nAudio\nFormat                           : MPEG Audio\nFormat version                   : Version 1\nFormat profile                   : Layer 3\nCodec ID                         : 55\nCodec ID/Hint                    : MP3\nDuration                         : 1h 2mn\nBit rate mode                    : Variable\nBit rate                         : 100 Kbps\nMinimum bit rate                 : 128 Kbps\nChannel(s)                       : 2 channels\nSampling rate                    : 48.0 KHz\nResolution                       : 16 bits\nStream size                      : 44.7 MiB (6%)\nAlignment                        : Aligned on interleaves\nInterleave, duration             : 24 ms (0.58 video frame)\nInterleave, preload duration     : 510 ms\nWriting library                  : LAME3.97b\nEncoding settings                : ABR\n\nGeneral\nComplete name                    : E:Black Diamond Mega Pack Part 2Emperor.DVDRip.XXXEmperor.DVDRip.XXX.CD2.avi\nFormat                           : AVI\nFormat/Info                      : Audio Video Interleave\nFile size                        : 701 MiB\nDuration                         : 1h 3mn\nOverall bit rate                 : 1 537 Kbps\nWriting application              : VirtualDubMod 1.5.4.1 (build 2178/release)\nWriting library                  : VirtualDubMod build 2178/release\n\nVideo\nFormat                           : MPEG-4 Visual\nFormat profile                   : Streaming Video@L1\nFormat settings, BVOP            : Yes\nFormat settings, QPel            : No\nFormat settings, GMC             : No warppoints\nFormat settings, Matrix          : Default\nMuxing mode                      : Packed bitstream\nCodec ID                         : XVID\nCodec ID/Hint                    : XviD\nDuration                         : 1h 3mn\nBit rate                         : 1 424 Kbps\nWidth                            : 512 pixels\nHeight                           : 384 pixels\nDisplay aspect ratio             : 4/3\nFrame rate                       : 23.976 fps\nResolution                       : 24 bits\nColorimetry                      : 4:2:0\nScan type                        : Progressive\nBits/(Pixel*Frame)               : 0.302\nStream size                      : 649 MiB (93%)\nWriting library                  : XviD 1.2.0SMP (UTC 2006-01-08)\n\nAudio\nFormat                           : MPEG Audio\nFormat version                   : Version 1\nFormat profile                   : Layer 3\nCodec ID                         : 55\nCodec ID/Hint                    : MP3\nDuration                         : 1h 3mn\nBit rate mode                    : Variable\nBit rate                         : 100 Kbps\nChannel(s)                       : 2 channels\nSampling rate                    : 48.0 KHz\nResolution                       : 16 bits\nStream size                      : 45.7 MiB (7%)\nAlignment                        : Aligned on interleaves\nInterleave, duration             : 24 ms (0.58 video frame)\nInterleave, preload duration     : 521 ms\n\nGeneral\nComplete name                    : E:Black Diamond Mega Pack Part 2Euro.Trash.XviD-CUMSTAiNScum-et1.nfo\nFile size                        : 9.18 KiB\n\nGeneral\nComplete name                    : E:Black Diamond Mega Pack Part 2Euro.Trash.XviD-CUMSTAiNSEuro.Trash.XviD-CUMSTAiNS.cd1.avi\nFormat                           : AVI\nFormat/Info                      : Audio Video Interleave\nFile size                        : 700 MiB\nDuration                         : 52mn 56s\nOverall bit rate                 : 1 849 Kbps\nWriting application              : VirtualDubMod 1.5.4.1 (build 2178/release)\nWriting library                  : VirtualDubMod build 2178/release\n\nVideo\nFormat                           : MPEG-4 Visual\nFormat profile                   : Streaming Video@L1\nFormat settings, BVOP            : Yes\nFormat settings, QPel            : No\nFormat settings, GMC             : No warppoints\nFormat settings, Matrix          : Custom\nMuxing mode                      : Packed bitstream\nCodec ID                         : XVID\nCodec ID/Hint                    : XviD\nDuration                         : 52mn 56s\nBit rate                         : 1 711 Kbps\nWidth                            : 512 pixels\nHeight                           : 400 pixels\nDisplay aspect ratio             : 1.280\nFrame rate                       : 29.970 fps\nResolution                       : 24 bits\nColorimetry                      : 4:2:0\nScan type                        : Progressive\nBits/(Pixel*Frame)               : 0.279\nStream size                      : 648 MiB (93%)\nWriting library                  : XviD 1.1.0 Beta2 (UTC 2005-04-04)\n\nAudio\nFormat                           : MPEG Audio\nFormat version                   : Version 1\nFormat profile                   : Layer 3\nCodec ID                         : 55\nCodec ID/Hint                    : MP3\nDuration                         : 52mn 56s\nBit rate mode                    : Variable\nBit rate                         : 125 Kbps\nMinimum bit rate                 : 128 Kbps\nChannel(s)                       : 2 channels\nSampling rate                    : 48.0 KHz\nResolution                       : 16 bits\nStream size                      : 47.2 MiB (7%)\nAlignment                        : Aligned on interleaves\nInterleave, duration             : 24 ms (0.72 video frame)\nInterleave, preload duration     : 147 ms\nWriting library                  : LAME3.96r\nEncoding settings                : ABR\nLanguage                         : Unknown / Unknown\n\nGeneral\nComplete name                    : E:Black Diamond Mega Pack Part 2Euro.Trash.XviD-CUMSTAiNSEuro.Trash.XviD-CUMSTAiNS.cd2.avi\nFormat                           : AVI\nFormat/Info                      : Audio Video Interleave\nFile size                        : 699 MiB\nDuration                         : 58mn 24s\nOverall bit rate                 : 1 672 Kbps\nWriting application              : VirtualDubMod 1.5.4.1 (build 2178/release)\nWriting library                  : VirtualDubMod build 2178/release\n\nVideo\nFormat                           : MPEG-4 Visual\nFormat profile                   : Streaming Video@L1\nFormat settings, BVOP            : Yes\nFormat settings, QPel            : No\nFormat settings, GMC             : No warppoints\nFormat settings, Matrix          : Custom\nMuxing mode                      : Packed bitstream\nCodec ID                         : XVID\nCodec ID/Hint                    : XviD\nDuration                         : 58mn 24s\nBit rate                         : 1 533 Kbps\nWidth                            : 512 pixels\nHeight                           : 400 pixels\nDisplay aspect ratio             : 1.280\nFrame rate                       : 29.970 fps\nResolution                       : 24 bits\nColorimetry                      : 4:2:0\nScan type                        : Progressive\nBits/(Pixel*Frame)               : 0.250\nStream size                      : 641 MiB (92%)\nWriting library                  : XviD 1.1.0 Beta2 (UTC 2005-04-04)\n\nAudio\nFormat                           : MPEG Audio\nFormat version                   : Version 1\nFormat profile                   : Layer 3\nCodec ID                         : 55\nCodec ID/Hint                    : MP3\nDuration                         : 58mn 14s\nBit rate mode                    : Variable\nBit rate                         : 125 Kbps\nChannel(s)                       : 2 channels\nSampling rate                    : 48.0 KHz\nResolution                       : 16 bits\nStream size                      : 52.2 MiB (7%)\nAlignment                        : Aligned on interleaves\nInterleave, duration             : 24 ms (0.72 video frame)\nInterleave, preload duration     : 501 ms\nLanguage                         : Unknown / Unknown\n\nGeneral\nComplete name                    : E:Black Diamond Mega Pack Part 2Exxxtraordinary.Eurobabes.1.XXX.DVDRip.XviD-TESOROtes-ee1.nfo\nFile size                        : 13.7 KiB\n\nGeneral\nComplete name                    : E:Black Diamond Mega Pack Part 2Exxxtraordinary.Eurobabes.1.XXX.DVDRip.XviD-TESOROtes-ee1a.avi\nFormat                           : AVI\nFormat/Info                      : Audio Video Interleave\nFile size                        : 691 MiB\nDuration                         : 1h 11mn\nOverall bit rate                 : 1 359 Kbps\nWriting application              : Nandub v1.0rc2\nWriting library                  : Nandub build 1852/release\n\nVideo\nFormat                           : MPEG-4 Visual\nFormat profile                   : Streaming Video@L1\nFormat settings, BVOP            : Yes\nFormat settings, QPel            : No\nFormat settings, GMC             : 3 warppoints\nFormat settings, Matrix          : Default\nMuxing mode                      : Packed bitstream\nCodec ID                         : XVID\nCodec ID/Hint                    : XviD\nDuration                         : 1h 11mn\nBit rate                         : 1 215 Kbps\nWidth                            : 512 pixels\nHeight                           : 384 pixels\nDisplay aspect ratio             : 4/3\nFrame rate                       : 29.970 fps\nResolution                       : 24 bits\nColorimetry                      : 4:2:0\nScan type                        : Progressive\nBits/(Pixel*Frame)               : 0.206\nStream size                      : 618 MiB (89%)\nWriting library                  : XviD 1.0.3 (UTC 2004-12-20)\n\nAudio\nFormat                           : MPEG Audio\nFormat version                   : Version 1\nFormat profile                   : Layer 3\nCodec ID                         : 55\nCodec ID/Hint                    : MP3\nDuration                         : 1h 11mn\nBit rate mode                    : Variable\nBit rate                         : 130 Kbps\nChannel(s)                       : 2 channels\nSampling rate                    : 48.0 KHz\nResolution                       : 16 bits\nStream size                      : 66.3 MiB (10%)\nAlignment                        : Aligned on interleaves\nInterleave, duration             : 24 ms (0.72 video frame)\nInterleave, preload duration     : 481 ms\n\nGeneral\nComplete name                    : E:Black Diamond Mega Pack Part 2Exxxtraordinary.Eurobabes.1.XXX.DVDRip.XviD-TESOROtes-ee1b.avi\nFormat                           : AVI\nFormat/Info                      : Audio Video Interleave\nFile size                        : 693 MiB\nDuration                         : 1h 10mn\nOverall bit rate                 : 1 374 Kbps\nWriting application              : Nandub v1.0rc2\nWriting library                  : Nandub build 1852/release\n\nVideo\nFormat                           : MPEG-4 Visual\nFormat profile                   : Streaming Video@L1\nFormat settings, BVOP            : Yes\nFormat settings, QPel            : No\nFormat settings, GMC             : 3 warppoints\nFormat settings, Matrix          : Default\nMuxing mode                      : Packed bitstream\nCodec ID                         : XVID\nCodec ID/Hint                    : XviD\nDuration                         : 1h 10mn\nBit rate                         : 1 230 Kbps\nWidth                            : 512 pixels\nHeight                           : 384 pixels\nDisplay aspect ratio             : 4/3\nFrame rate                       : 29.970 fps\nResolution                       : 24 bits\nColorimetry                      : 4:2:0\nScan type                        : Progressive\nBits/(Pixel*Frame)               : 0.209\nStream size                      : 621 MiB (90%)\nWriting library                  : XviD 1.0.3 (UTC 2004-12-20)\n\nAudio\nFormat                           : MPEG Audio\nFormat version                   : Version 1\nFormat profile                   : Layer 3\nCodec ID                         : 55\nCodec ID/Hint                    : MP3\nDuration                         : 1h 10mn\nBit rate mode                    : Variable\nBit rate                         : 130 Kbps\nChannel(s)                       : 2 channels\nSampling rate                    : 48.0 KHz\nResolution                       : 16 bits\nStream size                      : 65.3 MiB (9%)\nAlignment                        : Aligned on interleaves\nInterleave, duration             : 24 ms (0.72 video frame)\nInterleave, preload duration     : 487 ms\n\nGeneral\nComplete name                    : E:Black Diamond Mega Pack Part 2Fucking.Beautiful.5.XXX.DVDRiP.XviD-DivXfacTorydivxfactory-fuckb5.nfo\nFile size                        : 16.6 KiB\n\nGeneral\nComplete name                    : E:Black Diamond Mega Pack Part 2Fucking.Beautiful.5.XXX.DVDRiP.XviD-DivXfacToryFucking.Beautiful.5.XXX.DVDRiP.XviD-DivXfacTory.cd1.avi\nFormat                           : AVI\nFormat/Info                      : Audio Video Interleave\nFile size                        : 701 MiB\nDuration                         : 58mn 22s\nOverall bit rate                 : 1 678 Kbps\nWriting application              : Nandub v1.0rc2\nWriting library                  : Nandub build 1852/release\n\nVideo\nFormat                           : MPEG-4 Visual\nFormat profile                   : Streaming Video@L1\nFormat settings, BVOP            : Yes\nFormat settings, QPel            : No\nFormat settings, GMC             : No warppoints\nFormat settings, Matrix          : Default\nMuxing mode                      : Packed bitstream\nCodec ID                         : XVID\nCodec ID/Hint                    : XviD\nDuration                         : 58mn 22s\nBit rate                         : 1 551 Kbps\nWidth                            : 512 pixels\nHeight                           : 384 pixels\nDisplay aspect ratio             : 4/3\nFrame rate                       : 29.970 fps\nResolution                       : 24 bits\nColorimetry                      : 4:2:0\nScan type                        : Progressive\nBits/(Pixel*Frame)               : 0.263\nStream size                      : 648 MiB (92%)\nWriting library                  : XviD 1.0.3 (UTC 2004-12-20)\n\nAudio\nFormat                           : MPEG Audio\nFormat version                   : Version 1\nFormat profile                   : Layer 3\nCodec ID                         : 55\nCodec ID/Hint                    : MP3\nDuration                         : 58mn 22s\nBit rate mode                    : Variable\nBit rate                         : 112 Kbps\nChannel(s)                       : 2 channels\nSampling rate                    : 48.0 KHz\nResolution                       : 16 bits\nStream size                      : 47.2 MiB (7%)\nAlignment                        : Aligned on interleaves\nInterleave, duration             : 24 ms (0.72 video frame)\nInterleave, preload duration     : 543 ms\n\nGeneral\nComplete name                    : E:Black Diamond Mega Pack Part 2Fucking.Beautiful.5.XXX.DVDRiP.XviD-DivXfacToryFucking.Beautiful.5.XXX.DVDRiP.XviD-DivXfacTory.cd2.avi\nFormat                           : AVI\nFormat/Info                      : Audio Video Interleave\nFile size                        : 700 MiB\nDuration                         : 1h 8mn\nOverall bit rate                 : 1 437 Kbps\nWriting application              : Nandub v1.0rc2\nWriting library                  : Nandub build 1852/release\n\nVideo\nFormat                           : MPEG-4 Visual\nFormat profile                   : Streaming Video@L1\nFormat settings, BVOP            : Yes\nFormat settings, QPel            : No\nFormat settings, GMC             : No warppoints\nFormat settings, Matrix          : Default\nMuxing mode                      : Packed bitstream\nCodec ID                         : XVID\nCodec ID/Hint                    : XviD\nDuration                         : 1h 8mn\nBit rate                         : 1 313 Kbps\nWidth                            : 512 pixels\nHeight                           : 384 pixels\nDisplay aspect ratio             : 4/3\nFrame rate                       : 29.970 fps\nResolution                       : 24 bits\nColorimetry                      : 4:2:0\nScan type                        : Progressive\nBits/(Pixel*Frame)               : 0.223\nStream size                      : 640 MiB (91%)\nWriting library                  : XviD 1.0.3 (UTC 2004-12-20)\n\nAudio\nFormat                           : MPEG Audio\nFormat version                   : Version 1\nFormat profile                   : Layer 3\nCodec ID                         : 55\nCodec ID/Hint                    : MP3\nDuration                         : 1h 8mn\nBit rate mode                    : Variable\nBit rate                         : 112 Kbps\nChannel(s)                       : 2 channels\nSampling rate                    : 48.0 KHz\nResolution                       : 16 bits\nStream size                      : 53.8 MiB (8%)\nAlignment                        : Aligned on interleaves\nInterleave, duration             : 24 ms (0.72 video frame)\nInterleave, preload duration     : 488 ms\n\nGeneral\nComplete name                    : E:Black Diamond Mega Pack Part 2Hotel LuxxxuriaHotel Luxxxuria.avi\nFormat                           : AVI\nFormat/Info                      : Audio Video Interleave\nFile size                        : 763 MiB\nDuration                         : 1h 31mn\nOverall bit rate                 : 1 170 Kbps\n\nVideo\nFormat                           : MPEG-4 Visual\nFormat settings, BVOP            : No\nFormat settings, QPel            : No\nFormat settings, GMC             : No warppoints\nFormat settings, Matrix          : Default\nCodec ID                         : DX50\nCodec ID/Hint                    : DivX 5\nDuration                         : 1h 31mn\nBit rate                         : 1 000 Kbps\nWidth                            : 720 pixels\nHeight                           : 540 pixels\nDisplay aspect ratio             : 4/3\nFrame rate                       : 25.000 fps\nResolution                       : 24 bits\nColorimetry                      : 4:2:0\nScan type                        : Progressive\nBits/(Pixel*Frame)               : 0.103\nStream size                      : 652 MiB (85%)\nWriting library                  : DivX 5.2.1 (WaffleDay) (UTC 2004-09-08)\n\nAudio\nFormat                           : MPEG Audio\nFormat version                   : Version 1\nFormat profile                   : Layer 3\nCodec ID                         : 55\nCodec ID/Hint                    : MP3\nDuration                         : 1h 31mn\nBit rate mode                    : Constant\nBit rate                         : 160 Kbps\nChannel(s)                       : 2 channels\nSampling rate                    : 44.1 KHz\nResolution                       : 16 bits\nStream size                      : 104 MiB (14%)\nAlignment                        : Split accross interleaves\nInterleave, duration             : 40 ms (1.00 video frame)\nTitle                            : Audio Stream\n\nGeneral\nComplete name                    : E:Black Diamond Mega Pack Part 2Hustler_Leg_Affair_5_DVDRip_DivXHustler_Leg_Affair_5_DVDRip_DivX.avi\nFormat                           : AVI\nFormat/Info                      : Audio Video Interleave\nFile size                        : 702 MiB\nDuration                         : 1h 48mn\nOverall bit rate                 : 906 Kbps\nWriting application              : Nandub v1.0rc2\nWriting library                  : Nandub build 1852/release\n\nVideo\nFormat                           : MPEG-4 Visual\nFormat settings, BVOP            : Yes\nFormat settings, QPel            : No\nFormat settings, GMC             : No warppoints\nFormat settings, Matrix          : Default\nMuxing mode                      : Packed bitstream\nCodec ID                         : DX50\nCodec ID/Hint                    : DivX 5\nDuration                         : 1h 48mn\nBit rate                         : 812 Kbps\nWidth                            : 480 pixels\nHeight                           : 352 pixels\nDisplay aspect ratio             : 4/3\nFrame rate                       : 29.970 fps\nResolution                       : 24 bits\nColorimetry                      : 4:2:0\nScan type                        : Progressive\nBits/(Pixel*Frame)               : 0.160\nStream size                      : 629 MiB (90%)\nWriting library                  : DivX 5.0.5 (UTC 2003-04-24)\n\nAudio\nFormat                           : MPEG Audio\nFormat version                   : Version 1\nFormat profile                   : Layer 3\nCodec ID                         : 55\nCodec ID/Hint                    : MP3\nDuration                         : 1h 48mn\nBit rate mode                    : Variable\nBit rate                         : 80.0 Kbps\nChannel(s)                       : 2 channels\nSampling rate                    : 48.0 KHz\nResolution                       : 16 bits\nStream size                      : 62.0 MiB (9%)\nAlignment                        : Aligned on interleaves\nInterleave, duration             : 24 ms (0.72 video frame)\nInterleave, preload duration     : 458 ms\n\nGeneral\nComplete name                    : E:Black Diamond Mega Pack Part 2La Vita Secreta Di JasmineLaVitaSecretaDiJasmineCoVeR.jpg\nFormat                           : JPEG\nFile size                        : 77.3 KiB\n\nImage\nFormat                           : JPEG\nWidth                            : 672 pixels\nHeight                           : 443 pixels\nResolution                       : 8 bits\n\nGeneral\nComplete name                    : E:Black Diamond Mega Pack Part 2La Vita Secreta Di JasmineLaVitSecretaDiJasmineScreenS.jpg\nFormat                           : JPEG\nFile size                        : 285 KiB\n\nImage\nFormat                           : JPEG\nWidth                            : 818 pixels\nHeight                           : 2 121 pixels\nResolution                       : 8 bits\n\nGeneral\nComplete name                    : E:Black Diamond Mega Pack Part 2La Vita Secreta Di JasmineMario Salieri- La vita segreta di Jasmine.avi\nFormat                           : AVI\nFormat/Info                      : Audio Video Interleave\nFile size                        : 721 MiB\nDuration                         : 1h 26mn\nOverall bit rate                 : 1 172 Kbps\nWriting library                  : VirtualDub build 15654/release\n\nVideo\nFormat                           : MPEG-4 Visual\nCodec ID                         : DIV3\nCodec ID/Hint                    : DivX 3 Low\nDuration                         : 1h 26mn\nBit rate                         : 1 066 Kbps\nWidth                            : 448 pixels\nHeight                           : 256 pixels\nDisplay aspect ratio             : 16/9\nFrame rate                       : 25.000 fps\nResolution                       : 24 bits\nBits/(Pixel*Frame)               : 0.372\nStream size                      : 656 MiB (91%)\n\nAudio\nFormat                           : MPEG Audio\nFormat version                   : Version 1\nFormat profile                   : Layer 3\nCodec ID                         : 55\nCodec ID/Hint                    : MP3\nDuration                         : 1h 25mn\nBit rate mode                    : Constant\nBit rate                         : 96.0 Kbps\nChannel(s)                       : 2 channels\nSampling rate                    : 32.0 KHz\nResolution                       : 16 bits\nStream size                      : 59.1 MiB (8%)\nAlignment                        : Aligned on interleaves\nInterleave, duration             : 40 ms (1.00 video frame)\nInterleave, preload duration     : 468 ms\n\nGeneral\nComplete name                    : E:Black Diamond Mega Pack Part 2La Vita Secreta Di JasmineThumbs.db\nFile size                        : 10.0 KiB\n\nGeneral\nComplete name                    : E:Black Diamond Mega Pack Part 2Legal.Skin.18.XXX.DVDRip.XviD-CUMSTAiNScum-ls18a.avi\nFormat                           : AVI\nFormat/Info                      : Audio Video Interleave\nFile size                        : 699 MiB\nDuration                         : 59mn 39s\nOverall bit rate                 : 1 639 Kbps\nWriting application              : VirtualDubMod 1.5.10.1 (build 2439/release)\nWriting library                  : VirtualDubMod build 2439/release\n\nVideo\nFormat                           : MPEG-4 Visual\nFormat profile                   : Simple@L3\nFormat settings, BVOP            : No\nFormat settings, QPel            : No\nFormat settings, GMC             : No warppoints\nFormat settings, Matrix          : Default\nCodec ID                         : XVID\nCodec ID/Hint                    : XviD\nDuration                         : 59mn 39s\nBit rate                         : 1 466 Kbps\nWidth                            : 512 pixels\nHeight                           : 384 pixels\nDisplay aspect ratio             : 4/3\nFrame rate                       : 29.970 fps\nResolution                       : 24 bits\nColorimetry                      : 4:2:0\nScan type                        : Progressive\nBits/(Pixel*Frame)               : 0.249\nStream size                      : 626 MiB (89%)\nWriting library                  : XviD 0.0.09 (UTC 2003-03-25)\n\nAudio\nFormat                           : MPEG Audio\nFormat version                   : Version 1\nFormat profile                   : Layer 3\nCodec ID                         : 55\nCodec ID/Hint                    : MP3\nDuration                         : 59mn 39s\nBit rate mode                    : Variable\nBit rate                         : 158 Kbps\nChannel(s)                       : 2 channels\nSampling rate                    : 48.0 KHz\nResolution                       : 16 bits\nStream size                      : 67.7 MiB (10%)\nAlignment                        : Aligned on interleaves\nInterleave, duration             : 24 ms (0.72 video frame)\nInterleave, preload duration     : 504 ms\n\nGeneral\nComplete name                    : E:Black Diamond Mega Pack Part 2Legal.Skin.18.XXX.DVDRip.XviD-CUMSTAiNScum-ls18b.avi\nFormat                           : AVI\nFormat/Info                      : Audio Video Interleave\nFile size                        : 696 MiB\nDuration                         : 57mn 55s\nOverall bit rate                 : 1 679 Kbps\nWriting application              : VirtualDubMod 1.5.10.1 (build 2439/release)\nWriting library                  : VirtualDubMod build 2439/release\n\nVideo\nFormat                           : MPEG-4 Visual\nFormat profile                   : Simple@L3\nFormat settings, BVOP            : No\nFormat settings, QPel            : No\nFormat settings, GMC             : No warppoints\nFormat settings, Matrix          : Default\nCodec ID                         : XVID\nCodec ID/Hint                    : XviD\nDuration                         : 57mn 55s\nBit rate                         : 1 507 Kbps\nWidth                            : 512 pixels\nHeight                           : 384 pixels\nDisplay aspect ratio             : 4/3\nFrame rate                       : 29.970 fps\nResolution                       : 24 bits\nColorimetry                      : 4:2:0\nScan type                        : Progressive\nBits/(Pixel*Frame)               : 0.256\nStream size                      : 624 MiB (90%)\nWriting library                  : XviD 0.0.09 (UTC 2003-03-25)\n\nAudio\nFormat                           : MPEG Audio\nFormat version                   : Version 1\nFormat profile                   : Layer 3\nCodec ID                         : 55\nCodec ID/Hint                    : MP3\nDuration                         : 57mn 55s\nBit rate mode                    : Variable\nBit rate                         : 158 Kbps\nChannel(s)                       : 2 channels\nSampling rate                    : 48.0 KHz\nResolution                       : 16 bits\nStream size                      : 65.4 MiB (9%)\nAlignment                        : Aligned on interleaves\nInterleave, duration             : 24 ms (0.72 video frame)\nInterleave, preload duration     : 499 ms\n\nGeneral\nComplete name                    : E:Black Diamond Mega Pack Part 2Legal.Skin.18.XXX.DVDRip.XviD-CUMSTAiNScum-lsk18.nfo\nFile size                        : 9.04 KiB\n\nGeneral\nComplete name                    : E:Black Diamond Mega Pack Part 2Lex Steele XXX #1Lex Steele XXX #1.avi\nFormat                           : AVI\nFormat/Info                      : Audio Video Interleave\nFormat settings                  : rec\nFile size                        : 871 MiB\nDuration                         : 2h 18mn\nOverall bit rate                 : 878 Kbps\n\nVideo\nFormat                           : MPEG-4 Visual\nFormat settings, BVOP            : Yes\nFormat settings, QPel            : No\nFormat settings, GMC             : 2 warppoints\nFormat settings, Matrix          : Default\nMuxing mode                      : Packed bitstream\nCodec ID                         : DX50\nCodec ID/Hint                    : DivX 5\nDuration                         : 2h 18mn\nBit rate                         : 783 Kbps\nWidth                            : 480 pixels\nHeight                           : 360 pixels\nDisplay aspect ratio             : 4/3\nFrame rate                       : 23.976 fps\nResolution                       : 24 bits\nScan type                        : Progressive\nBits/(Pixel*Frame)               : 0.189\nStream size                      : 777 MiB (89%)\nWriting library                  : DivX 5.0.2 (UTC 2002-05-16)\n\nAudio\nFormat                           : MPEG Audio\nFormat version                   : Version 1\nFormat profile                   : Layer 3\nCodec ID                         : 55\nCodec ID/Hint                    : MP3\nDuration                         : 2h 18mn\nBit rate mode                    : Variable\nBit rate                         : 84.9 Kbps\nChannel(s)                       : 2 channels\nSampling rate                    : 32.0 KHz\nResolution                       : 16 bits\nStream size                      : 84.1 MiB (10%)\nAlignment                        : Aligned on interleaves\nInterleave, duration             : 36 ms (0.86 video frame)\n\nGeneral\nComplete name                    : E:Black Diamond Mega Pack Part 2Lex Steele XXX #1Thumbs.db\nFile size                        : 5.50 KiB\n\nGeneral\nComplete name                    : E:Black Diamond Mega Pack Part 2New Flavors 2 2006New Flavors 2 2006.avi\nFormat                           : AVI\nFormat/Info                      : Audio Video Interleave\nFile size                        : 696 MiB\nDuration                         : 1h 37mn\nOverall bit rate                 : 1 002 Kbps\nWriting application              : VirtualDubMod 1.5.10.1 (build 2439/release)\nWriting library                  : VirtualDubMod build 2439/release\n\nVideo\nFormat                           : MPEG-4 Visual\nFormat profile                   : Streaming Video@L1\nFormat settings, BVOP            : Yes\nFormat settings, QPel            : No\nFormat settings, GMC             : No warppoints\nFormat settings, Matrix          : Default\nMuxing mode                      : Packed bitstream\nCodec ID                         : XVID\nCodec ID/Hint                    : XviD\nDuration                         : 1h 37mn\nBit rate                         : 868 Kbps\nWidth                            : 640 pixels\nHeight                           : 352 pixels\nDisplay aspect ratio             : 16/9\nFrame rate                       : 29.970 fps\nResolution                       : 24 bits\nColorimetry                      : 4:2:0\nScan type                        : Progressive\nBits/(Pixel*Frame)               : 0.129\nStream size                      : 602 MiB (87%)\nWriting library                  : XviD 1.0.2 (UTC 2004-08-29)\n\nAudio\nFormat                           : MPEG Audio\nFormat version                   : Version 1\nFormat profile                   : Layer 3\nCodec ID                         : 55\nCodec ID/Hint                    : MP3\nDuration                         : 1h 37mn\nBit rate mode                    : Variable\nBit rate                         : 120 Kbps\nMinimum bit rate                 : 128 Kbps\nChannel(s)                       : 2 channels\nSampling rate                    : 48.0 KHz\nResolution                       : 16 bits\nStream size                      : 83.6 MiB (12%)\nAlignment                        : Aligned on interleaves\nInterleave, duration             : 24 ms (0.72 video frame)\nInterleave, preload duration     : 398 ms\nWriting library                  : LAME3.96r\nEncoding settings                : ABR\n\nGeneral\nComplete name                    : E:Black Diamond Mega Pack Part 2Out.Numbered.4.XViD-PORNOLATiONDisk1Out.Numbered.4.Disc1.XViD-PORNOLATiON.CD1.avi\nFormat                           : AVI\nFormat/Info                      : Audio Video Interleave\nFile size                        : 697 MiB\nDuration                         : 1h 8mn\nOverall bit rate                 : 1 423 Kbps\nWriting application              : VirtualDubMod 1.5.10.1 (build 2439/release)\nWriting library                  : VirtualDubMod build 2439/release\n\nVideo\nFormat                           : MPEG-4 Visual\nFormat profile                   : Streaming Video@L1\nFormat settings, BVOP            : Yes\nFormat settings, QPel            : No\nFormat settings, GMC             : No warppoints\nFormat settings, Matrix          : Default\nMuxing mode                      : Packed bitstream\nCodec ID                         : XVID\nCodec ID/Hint                    : XviD\nDuration                         : 1h 8mn\nBit rate                         : 1 290 Kbps\nWidth                            : 512 pixels\nHeight                           : 384 pixels\nDisplay aspect ratio             : 4/3\nFrame rate                       : 29.970 fps\nResolution                       : 24 bits\nColorimetry                      : 4:2:0\nScan type                        : Progressive\nBits/(Pixel*Frame)               : 0.219\nStream size                      : 632 MiB (91%)\nWriting library                  : XviD 1.0.2 (UTC 2004-08-29)\n\nAudio\nFormat                           : MPEG Audio\nFormat version                   : Version 1\nFormat profile                   : Layer 3\nCodec ID                         : 55\nCodec ID/Hint                    : MP3\nDuration                         : 1h 8mn\nBit rate mode                    : Variable\nBit rate                         : 119 Kbps\nMinimum bit rate                 : 128 Kbps\nChannel(s)                       : 2 channels\nSampling rate                    : 48.0 KHz\nResolution                       : 16 bits\nStream size                      : 58.4 MiB (8%)\nAlignment                        : Aligned on interleaves\nInterleave, duration             : 24 ms (0.72 video frame)\nInterleave, preload duration     : 531 ms\nWriting library                  : LAME3.96r\nEncoding settings                : ABR\n\nGeneral\nComplete name                    : E:Black Diamond Mega Pack Part 2Out.Numbered.4.XViD-PORNOLATiONDisk1Out.Numbered.4.Disc1.XViD-PORNOLATiON.CD2.avi\nFormat                           : AVI\nFormat/Info                      : Audio Video Interleave\nFile size                        : 695 MiB\nDuration                         : 1h 0mn\nOverall bit rate                 : 1 608 Kbps\nWriting application              : VirtualDubMod 1.5.10.1 (build 2439/release)\nWriting library                  : VirtualDubMod build 2439/release\n\nVideo\nFormat                           : MPEG-4 Visual\nFormat profile                   : Streaming Video@L1\nFormat settings, BVOP            : Yes\nFormat settings, QPel            : No\nFormat settings, GMC             : No warppoints\nFormat settings, Matrix          : Default\nMuxing mode                      : Packed bitstream\nCodec ID                         : XVID\nCodec ID/Hint                    : XviD\nDuration                         : 1h 0mn\nBit rate                         : 1 475 Kbps\nWidth                            : 512 pixels\nHeight                           : 384 pixels\nDisplay aspect ratio             : 4/3\nFrame rate                       : 29.970 fps\nResolution                       : 24 bits\nColorimetry                      : 4:2:0\nScan type                        : Progressive\nBits/(Pixel*Frame)               : 0.250\nStream size                      : 638 MiB (92%)\nWriting library                  : XviD 1.0.2 (UTC 2004-08-29)\n\nAudio\nFormat                           : MPEG Audio\nFormat version                   : Version 1\nFormat profile                   : Layer 3\nCodec ID                         : 55\nCodec ID/Hint                    : MP3\nDuration                         : 1h 0mn\nBit rate mode                    : Variable\nBit rate                         : 119 Kbps\nChannel(s)                       : 2 channels\nSampling rate                    : 48.0 KHz\nResolution                       : 16 bits\nStream size                      : 51.5 MiB (7%)\nAlignment                        : Aligned on interleaves\nInterleave, duration             : 24 ms (0.72 video frame)\nInterleave, preload duration     : 756 ms\n\nGeneral\nComplete name                    : E:Black Diamond Mega Pack Part 2Out.Numbered.4.XViD-PORNOLATiONDisk1Thumbs.db\nFile size                        : 4.00 KiB\n\nGeneral\nComplete name                    : E:Black Diamond Mega Pack Part 2Out.Numbered.4.XViD-PORNOLATiONDisk2Out.Numbered.4.Disc2.XViD-PORNOLATiON.CD1.avi\nFormat                           : AVI\nFormat/Info                      : Audio Video Interleave\nFile size                        : 697 MiB\nDuration                         : 59mn 41s\nOverall bit rate                 : 1 632 Kbps\nWriting application              : VirtualDubMod 1.5.10.1 (build 2439/release)\nWriting library                  : VirtualDubMod build 2439/release\n\nVideo\nFormat                           : MPEG-4 Visual\nFormat profile                   : Streaming Video@L1\nFormat settings, BVOP            : Yes\nFormat settings, QPel            : No\nFormat settings, GMC             : No warppoints\nFormat settings, Matrix          : Default\nMuxing mode                      : Packed bitstream\nCodec ID                         : XVID\nCodec ID/Hint                    : XviD\nDuration                         : 59mn 41s\nBit rate                         : 1 498 Kbps\nWidth                            : 512 pixels\nHeight                           : 384 pixels\nDisplay aspect ratio             : 4/3\nFrame rate                       : 29.970 fps\nResolution                       : 24 bits\nColorimetry                      : 4:2:0\nScan type                        : Progressive\nBits/(Pixel*Frame)               : 0.254\nStream size                      : 640 MiB (92%)\nWriting library                  : XviD 1.0.2 (UTC 2004-08-29)\n\nAudio\nFormat                           : MPEG Audio\nFormat version                   : Version 1\nFormat profile                   : Layer 3\nCodec ID                         : 55\nCodec ID/Hint                    : MP3\nDuration                         : 59mn 41s\nBit rate mode                    : Variable\nBit rate                         : 120 Kbps\nMinimum bit rate                 : 128 Kbps\nChannel(s)                       : 2 channels\nSampling rate                    : 48.0 KHz\nResolution                       : 16 bits\nStream size                      : 51.1 MiB (7%)\nAlignment                        : Aligned on interleaves\nInterleave, duration             : 24 ms (0.72 video frame)\nInterleave, preload duration     : 568 ms\nWriting library                  : LAME3.96r\nEncoding settings                : ABR\n\nGeneral\nComplete name                    : E:Black Diamond Mega Pack Part 2Out.Numbered.4.XViD-PORNOLATiONDisk2Out.Numbered.4.Disc2.XViD-PORNOLATiON.CD2.avi\nFormat                           : AVI\nFormat/Info                      : Audio Video Interleave\nFile size                        : 696 MiB\nDuration                         : 1h 7mn\nOverall bit rate                 : 1 434 Kbps\nWriting application              : VirtualDubMod 1.5.10.1 (build 2439/release)\nWriting library                  : VirtualDubMod build 2439/release\n\nVideo\nFormat                           : MPEG-4 Visual\nFormat profile                   : Streaming Video@L1\nFormat settings, BVOP            : Yes\nFormat settings, QPel            : No\nFormat settings, GMC             : No warppoints\nFormat settings, Matrix          : Default\nMuxing mode                      : Packed bitstream\nCodec ID                         : XVID\nCodec ID/Hint                    : XviD\nDuration                         : 1h 7mn\nBit rate                         : 1 301 Kbps\nWidth                            : 512 pixels\nHeight                           : 384 pixels\nDisplay aspect ratio             : 4/3\nFrame rate                       : 29.970 fps\nResolution                       : 24 bits\nColorimetry                      : 4:2:0\nScan type                        : Progressive\nBits/(Pixel*Frame)               : 0.221\nStream size                      : 631 MiB (91%)\nWriting library                  : XviD 1.0.2 (UTC 2004-08-29)\n\nAudio\nFormat                           : MPEG Audio\nFormat version                   : Version 1\nFormat profile                   : Layer 3\nCodec ID                         : 55\nCodec ID/Hint                    : MP3\nDuration                         : 1h 7mn\nBit rate mode                    : Variable\nBit rate                         : 120 Kbps\nChannel(s)                       : 2 channels\nSampling rate                    : 48.0 KHz\nResolution                       : 16 bits\nStream size                      : 57.8 MiB (8%)\nAlignment                        : Aligned on interleaves\nInterleave, duration             : 24 ms (0.72 video frame)\nInterleave, preload duration     : 497 ms\n\nGeneral\nComplete name                    : E:Black Diamond Mega Pack Part 2Private Casting 33 - Anneth.avi\nFormat                           : AVI\nFormat/Info                      : Audio Video Interleave\nFile size                        : 280 MiB\nDuration                         : 34mn 15s\nOverall bit rate                 : 1 141 Kbps\n\nVideo\nFormat                           : MPEG-4 Visual\nFormat settings, BVOP            : Yes\nFormat settings, QPel            : No\nFormat settings, GMC             : No warppoints\nFormat settings, Matrix          : Default\nMuxing mode                      : Packed bitstream\nCodec ID                         : DX50\nCodec ID/Hint                    : DivX 5\nDuration                         : 34mn 15s\nBit rate                         : 1 000 Kbps\nWidth                            : 640 pixels\nHeight                           : 480 pixels\nDisplay aspect ratio             : 4/3\nFrame rate                       : 25.000 fps\nResolution                       : 24 bits\nColorimetry                      : 4:2:0\nScan type                        : Progressive\nBits/(Pixel*Frame)               : 0.130\nStream size                      : 245 MiB (88%)\nTitle                            : Video\nWriting library                  : DivX 5.2.1 Alpha (UTC 2004-09-08)\n\nAudio\nFormat                           : MPEG Audio\nFormat version                   : Version 1\nFormat profile                   : Layer 3\nCodec ID                         : 55\nCodec ID/Hint                    : MP3\nDuration                         : 34mn 15s\nBit rate mode                    : Variable\nBit rate                         : 128 Kbps\nChannel(s)                       : 2 channels\nSampling rate                    : 44.1 KHz\nResolution                       : 16 bits\nStream size                      : 31.5 MiB (11%)\nAlignment                        : Aligned on interleaves\nInterleave, duration             : 26 ms (0.65 video frame)\nInterleave, preload duration     : 475 ms\nTitle                            : Audio\n\nGeneral\nComplete name                    : E:Black Diamond Mega Pack Part 2Private Movies 17 - A Taste Of Pleasure1.jpg\nFormat                           : JPEG\nFile size                        : 68.7 KiB\n\nImage\nFormat                           : JPEG\nWidth                            : 600 pixels\nHeight                           : 429 pixels\nResolution                       : 8 bits\n\nGeneral\nComplete name                    : E:Black Diamond Mega Pack Part 2Private Movies 17 - A Taste Of PleasurePrivate - Movies 17 - A Taste Of Pleasure.avi\nFormat                           : AVI\nFormat/Info                      : Audio Video Interleave\nFile size                        : 700 MiB\nDuration                         : 1h 50mn\nOverall bit rate                 : 883 Kbps\nWriting application              : VirtualDubMod 1.5.4.1 (build 2178/release)\nWriting library                  : VirtualDubMod build 2178/release\n\nVideo\nFormat                           : MPEG-4 Visual\nFormat profile                   : Streaming Video@L1\nFormat settings, BVOP            : Yes\nFormat settings, QPel            : No\nFormat settings, GMC             : No warppoints\nFormat settings, Matrix          : Custom\nCodec ID                         : XVID\nCodec ID/Hint                    : XviD\nDuration                         : 1h 50mn\nBit rate                         : 744 Kbps\nWidth                            : 512 pixels\nHeight                           : 384 pixels\nDisplay aspect ratio             : 4/3\nFrame rate                       : 25.000 fps\nResolution                       : 24 bits\nColorimetry                      : 4:2:0\nScan type                        : Progressive\nBits/(Pixel*Frame)               : 0.151\nStream size                      : 589 MiB (84%)\nWriting library                  : XviD 1.0.3 (UTC 2004-12-20)\n\nAudio\nFormat                           : MPEG Audio\nFormat version                   : Version 1\nFormat profile                   : Layer 3\nCodec ID                         : 55\nCodec ID/Hint                    : MP3\nDuration                         : 1h 50mn\nBit rate mode                    : Variable\nBit rate                         : 127 Kbps\nMinimum bit rate                 : 128 Kbps\nChannel(s)                       : 2 channels\nSampling rate                    : 48.0 KHz\nResolution                       : 16 bits\nStream size                      : 100 MiB (14%)\nAlignment                        : Aligned on interleaves\nInterleave, duration             : 24 ms (0.60 video frame)\nInterleave, preload duration     : 518 ms\nWriting library                  : LAME3.96r\nEncoding settings                : ABR\nLanguage                         : Espaol\n\nGeneral\nComplete name                    : E:Black Diamond Mega Pack Part 2Private.Movies.31.Discovering.Priva.XviD-SWE6RUSPrivate.Movies.31.Discovering.Priva.XviD-SWE6RUS.CD.1.avi\nFormat                           : AVI\nFormat/Info                      : Audio Video Interleave\nFile size                        : 698 MiB\nDuration                         : 53mn 51s\nOverall bit rate                 : 1 811 Kbps\nWriting application              : VirtualDubMod 1.5.10.1 (build 2439/release)\nWriting library                  : VirtualDubMod build 2439/release\n\nVideo\nFormat                           : MPEG-4 Visual\nFormat profile                   : Streaming Video@L1\nFormat settings, BVOP            : Yes\nFormat settings, QPel            : No\nFormat settings, GMC             : No warppoints\nFormat settings, Matrix          : Default\nMuxing mode                      : Packed bitstream\nCodec ID                         : XVID\nCodec ID/Hint                    : XviD\nDuration                         : 53mn 51s\nBit rate                         : 1 625 Kbps\nWidth                            : 576 pixels\nHeight                           : 320 pixels\nDisplay aspect ratio             : 16/9\nFrame rate                       : 25.000 fps\nResolution                       : 24 bits\nColorimetry                      : 4:2:0\nScan type                        : Progressive\nBits/(Pixel*Frame)               : 0.353\nStream size                      : 626 MiB (90%)\nWriting library                  : XviD 1.0.3 (UTC 2004-12-20)\n\nAudio\nFormat                           : MPEG Audio\nFormat version                   : Version 1\nFormat profile                   : Layer 3\nCodec ID                         : 55\nCodec ID/Hint                    : MP3\nDuration                         : 53mn 51s\nBit rate mode                    : Variable\nBit rate                         : 174 Kbps\nChannel(s)                       : 2 channels\nSampling rate                    : 48.0 KHz\nResolution                       : 16 bits\nStream size                      : 66.7 MiB (10%)\nAlignment                        : Aligned on interleaves\nInterleave, duration             : 24 ms (0.60 video frame)\nInterleave, preload duration     : 497 ms\n\nGeneral\nComplete name                    : E:Black Diamond Mega Pack Part 2Private.Movies.31.Discovering.Priva.XviD-SWE6RUSPrivate.Movies.31.Discovering.Priva.XviD-SWE6RUS.CD.2.avi\nFormat                           : AVI\nFormat/Info                      : Audio Video Interleave\nFile size                        : 699 MiB\nDuration                         : 1h 7mn\nOverall bit rate                 : 1 445 Kbps\nWriting application              : VirtualDubMod 1.5.10.1 (build 2439/release)\nWriting library                  : VirtualDubMod build 2439/release\n\nVideo\nFormat                           : MPEG-4 Visual\nFormat profile                   : Streaming Video@L1\nFormat settings, BVOP            : Yes\nFormat settings, QPel            : No\nFormat settings, GMC             : No warppoints\nFormat settings, Matrix          : Default\nMuxing mode                      : Packed bitstream\nCodec ID                         : XVID\nCodec ID/Hint                    : XviD\nDuration                         : 1h 7mn\nBit rate                         : 1 257 Kbps\nWidth                            : 576 pixels\nHeight                           : 320 pixels\nDisplay aspect ratio             : 16/9\nFrame rate                       : 25.000 fps\nResolution                 ","torrent":{"xt":"urn:btih:020bf5dda1e8c2d26f557eb6a43b417cdd48cf0c","amp;dn":"Black+Diamond+%28megapack+%232%29+-+21+movies","amp;tr":["udp%3A%2F%2Ftracker.openbittorrent.com%3A80","udp%3A%2F%2Fopen.demonii.com%3A1337","udp%3A%2F%2Ftracker.coppersurfer.tk%3A6969","udp%3A%2F%2Fexodus.desync.com%3A6969"],"infoHash":"020bf5dda1e8c2d26f557eb6a43b417cdd48cf0c","infoHashBuffer":{"type":"Buffer","data":[2,11,245,221,161,232,194,210,111,85,126,182,164,59,65,124,221,72,207,12]},"announce":[],"urlList":[]}}